<mxfile host="app.diagrams.net" modified="2022-09-14T23:21:17.682Z" agent="5.0 (Windows NT 10.0; Win64; x64) AppleWebKit/537.36 (KHTML, like Gecko) Chrome/104.0.5112.102 Safari/537.36 OPR/90.0.4480.84" etag="oF8onlK-U7j8zRzm5oSQ" version="20.3.0" type="github">
  <diagram id="C5RBs43oDa-KdzZeNtuy" name="Page-1">
    <mxGraphModel dx="1382" dy="764" grid="1" gridSize="10" guides="1" tooltips="1" connect="1" arrows="1" fold="1" page="1" pageScale="1" pageWidth="827" pageHeight="1169" background="#F4F1DE" math="0" shadow="0">
      <root>
        <mxCell id="WIyWlLk6GJQsqaUBKTNV-0" />
        <mxCell id="WIyWlLk6GJQsqaUBKTNV-1" parent="WIyWlLk6GJQsqaUBKTNV-0" />
        <mxCell id="WIyWlLk6GJQsqaUBKTNV-2" value="" style="rounded=0;html=1;jettySize=auto;orthogonalLoop=1;fontSize=10;endArrow=block;endFill=0;endSize=8;strokeWidth=1;shadow=0;labelBackgroundColor=none;edgeStyle=orthogonalEdgeStyle;entryX=0.5;entryY=0;entryDx=0;entryDy=0;strokeColor=#E07A5F;fontColor=#393C56;" parent="WIyWlLk6GJQsqaUBKTNV-1" source="WIyWlLk6GJQsqaUBKTNV-3" target="2PnyUFlPdiLSc-K2bj9N-10" edge="1">
          <mxGeometry relative="1" as="geometry">
            <mxPoint x="170.00000000000023" y="230.0000000000001" as="targetPoint" />
          </mxGeometry>
        </mxCell>
        <mxCell id="WIyWlLk6GJQsqaUBKTNV-3" value="Dataset (sampling)" style="rounded=0;whiteSpace=wrap;html=1;fontSize=10;glass=0;strokeWidth=1;shadow=0;fillColor=#F2CC8F;strokeColor=#E07A5F;fontColor=#393C56;" parent="WIyWlLk6GJQsqaUBKTNV-1" vertex="1">
          <mxGeometry x="110" y="170" width="120" height="40" as="geometry" />
        </mxCell>
        <mxCell id="2PnyUFlPdiLSc-K2bj9N-42" value="" style="edgeStyle=orthogonalEdgeStyle;rounded=0;orthogonalLoop=1;jettySize=auto;html=1;fontSize=10;labelBackgroundColor=#F4F1DE;strokeColor=#E07A5F;fontColor=#393C56;" parent="WIyWlLk6GJQsqaUBKTNV-1" source="2PnyUFlPdiLSc-K2bj9N-10" target="2PnyUFlPdiLSc-K2bj9N-39" edge="1">
          <mxGeometry relative="1" as="geometry" />
        </mxCell>
        <mxCell id="Ju-EhPrNHdVaFL45JIix-36" value="" style="edgeStyle=orthogonalEdgeStyle;rounded=0;orthogonalLoop=1;jettySize=auto;html=1;fontSize=10;entryX=0.5;entryY=0;entryDx=0;entryDy=0;labelBackgroundColor=#F4F1DE;strokeColor=#E07A5F;fontColor=#393C56;" parent="WIyWlLk6GJQsqaUBKTNV-1" source="2PnyUFlPdiLSc-K2bj9N-10" target="Ju-EhPrNHdVaFL45JIix-37" edge="1">
          <mxGeometry relative="1" as="geometry">
            <mxPoint x="170" y="320" as="targetPoint" />
          </mxGeometry>
        </mxCell>
        <mxCell id="2PnyUFlPdiLSc-K2bj9N-10" value="Clustering" style="swimlane;fontStyle=1;childLayout=stackLayout;horizontal=1;startSize=20;horizontalStack=0;resizeParent=1;resizeParentMax=0;resizeLast=0;collapsible=1;marginBottom=0;enumerate=0;labelBackgroundColor=none;fillColor=#F2CC8F;strokeColor=#E07A5F;fontColor=#393C56;fontSize=10;rounded=0;" parent="WIyWlLk6GJQsqaUBKTNV-1" vertex="1">
          <mxGeometry x="115" y="240" width="110" height="60" as="geometry" />
        </mxCell>
        <mxCell id="2PnyUFlPdiLSc-K2bj9N-12" value="Hierarchical (single)" style="text;strokeColor=none;fillColor=none;align=left;verticalAlign=middle;spacingLeft=4;spacingRight=4;overflow=hidden;points=[[0,0.5],[1,0.5]];portConstraint=eastwest;rotatable=0;fontSize=10;fontColor=#393C56;rounded=0;" parent="2PnyUFlPdiLSc-K2bj9N-10" vertex="1">
          <mxGeometry y="20" width="110" height="20" as="geometry" />
        </mxCell>
        <mxCell id="2PnyUFlPdiLSc-K2bj9N-13" value="ANOVA (categorical)" style="text;strokeColor=none;fillColor=none;align=left;verticalAlign=middle;spacingLeft=4;spacingRight=4;overflow=hidden;points=[[0,0.5],[1,0.5]];portConstraint=eastwest;rotatable=0;fontSize=10;fontColor=#393C56;rounded=0;" parent="2PnyUFlPdiLSc-K2bj9N-10" vertex="1">
          <mxGeometry y="40" width="110" height="20" as="geometry" />
        </mxCell>
        <mxCell id="Ju-EhPrNHdVaFL45JIix-30" value="" style="edgeStyle=orthogonalEdgeStyle;rounded=0;orthogonalLoop=1;jettySize=auto;html=1;fontSize=10;labelBackgroundColor=#F4F1DE;strokeColor=#E07A5F;fontColor=#393C56;" parent="WIyWlLk6GJQsqaUBKTNV-1" source="2PnyUFlPdiLSc-K2bj9N-39" target="Ju-EhPrNHdVaFL45JIix-26" edge="1">
          <mxGeometry relative="1" as="geometry" />
        </mxCell>
        <mxCell id="2PnyUFlPdiLSc-K2bj9N-39" value="Methods" style="swimlane;fontStyle=1;childLayout=stackLayout;horizontal=1;startSize=20;horizontalStack=0;resizeParent=1;resizeParentMax=0;resizeLast=0;collapsible=1;marginBottom=0;enumerate=0;fillColor=#F2CC8F;strokeColor=#E07A5F;fontColor=#393C56;fontSize=10;rounded=0;" parent="WIyWlLk6GJQsqaUBKTNV-1" vertex="1">
          <mxGeometry x="270" y="230" width="80" height="80" as="geometry" />
        </mxCell>
        <mxCell id="2PnyUFlPdiLSc-K2bj9N-40" value="T-SNE" style="text;strokeColor=none;fillColor=none;align=left;verticalAlign=middle;spacingLeft=4;spacingRight=4;overflow=hidden;points=[[0,0.5],[1,0.5]];portConstraint=eastwest;rotatable=0;fontSize=10;fontColor=#393C56;rounded=0;" parent="2PnyUFlPdiLSc-K2bj9N-39" vertex="1">
          <mxGeometry y="20" width="80" height="20" as="geometry" />
        </mxCell>
        <mxCell id="2PnyUFlPdiLSc-K2bj9N-41" value="Single linkage" style="text;strokeColor=none;fillColor=none;align=left;verticalAlign=middle;spacingLeft=4;spacingRight=4;overflow=hidden;points=[[0,0.5],[1,0.5]];portConstraint=eastwest;rotatable=0;fontSize=10;fontColor=#393C56;rounded=0;" parent="2PnyUFlPdiLSc-K2bj9N-39" vertex="1">
          <mxGeometry y="40" width="80" height="20" as="geometry" />
        </mxCell>
        <mxCell id="Ju-EhPrNHdVaFL45JIix-24" value="Turkey HSD" style="text;strokeColor=none;fillColor=none;align=left;verticalAlign=middle;spacingLeft=4;spacingRight=4;overflow=hidden;points=[[0,0.5],[1,0.5]];portConstraint=eastwest;rotatable=0;fontSize=10;fontColor=#393C56;rounded=0;" parent="2PnyUFlPdiLSc-K2bj9N-39" vertex="1">
          <mxGeometry y="60" width="80" height="20" as="geometry" />
        </mxCell>
        <mxCell id="Ju-EhPrNHdVaFL45JIix-26" value="Metrics" style="swimlane;fontStyle=1;childLayout=stackLayout;horizontal=1;startSize=20;horizontalStack=0;resizeParent=1;resizeParentMax=0;resizeLast=0;collapsible=1;marginBottom=0;enumerate=0;fillColor=#F2CC8F;strokeColor=#E07A5F;fontColor=#393C56;fontSize=10;rounded=0;" parent="WIyWlLk6GJQsqaUBKTNV-1" vertex="1">
          <mxGeometry x="400" y="210" width="110" height="120" as="geometry" />
        </mxCell>
        <mxCell id="Ju-EhPrNHdVaFL45JIix-27" value="Visualization" style="text;strokeColor=none;fillColor=none;align=left;verticalAlign=middle;spacingLeft=4;spacingRight=4;overflow=hidden;points=[[0,0.5],[1,0.5]];portConstraint=eastwest;rotatable=0;fontSize=10;fontColor=#393C56;rounded=0;" parent="Ju-EhPrNHdVaFL45JIix-26" vertex="1">
          <mxGeometry y="20" width="110" height="20" as="geometry" />
        </mxCell>
        <mxCell id="Ju-EhPrNHdVaFL45JIix-28" value="Silhouette score" style="text;strokeColor=none;fillColor=none;align=left;verticalAlign=middle;spacingLeft=4;spacingRight=4;overflow=hidden;points=[[0,0.5],[1,0.5]];portConstraint=eastwest;rotatable=0;fontSize=10;fontColor=#393C56;rounded=0;" parent="Ju-EhPrNHdVaFL45JIix-26" vertex="1">
          <mxGeometry y="40" width="110" height="20" as="geometry" />
        </mxCell>
        <mxCell id="Ju-EhPrNHdVaFL45JIix-29" value="Davies-Bouldin score" style="text;strokeColor=none;fillColor=none;align=left;verticalAlign=middle;spacingLeft=4;spacingRight=4;overflow=hidden;points=[[0,0.5],[1,0.5]];portConstraint=eastwest;rotatable=0;fontSize=10;fontColor=#393C56;rounded=0;" parent="Ju-EhPrNHdVaFL45JIix-26" vertex="1">
          <mxGeometry y="60" width="110" height="20" as="geometry" />
        </mxCell>
        <mxCell id="Ju-EhPrNHdVaFL45JIix-31" value="Rand-index" style="text;strokeColor=none;fillColor=none;align=left;verticalAlign=middle;spacingLeft=4;spacingRight=4;overflow=hidden;points=[[0,0.5],[1,0.5]];portConstraint=eastwest;rotatable=0;fontSize=10;fontColor=#393C56;rounded=0;" parent="Ju-EhPrNHdVaFL45JIix-26" vertex="1">
          <mxGeometry y="80" width="110" height="20" as="geometry" />
        </mxCell>
        <mxCell id="Ju-EhPrNHdVaFL45JIix-32" value="Jaccard-index" style="text;strokeColor=none;fillColor=none;align=left;verticalAlign=middle;spacingLeft=4;spacingRight=4;overflow=hidden;points=[[0,0.5],[1,0.5]];portConstraint=eastwest;rotatable=0;fontSize=10;fontColor=#393C56;rounded=0;" parent="Ju-EhPrNHdVaFL45JIix-26" vertex="1">
          <mxGeometry y="100" width="110" height="20" as="geometry" />
        </mxCell>
        <mxCell id="Ju-EhPrNHdVaFL45JIix-46" value="" style="edgeStyle=orthogonalEdgeStyle;rounded=0;orthogonalLoop=1;jettySize=auto;html=1;fontSize=10;entryX=0.5;entryY=0;entryDx=0;entryDy=0;labelBackgroundColor=#F4F1DE;strokeColor=#E07A5F;fontColor=#393C56;" parent="WIyWlLk6GJQsqaUBKTNV-1" source="Ju-EhPrNHdVaFL45JIix-37" target="Ju-EhPrNHdVaFL45JIix-40" edge="1">
          <mxGeometry relative="1" as="geometry">
            <mxPoint x="170" y="390" as="targetPoint" />
          </mxGeometry>
        </mxCell>
        <mxCell id="Ju-EhPrNHdVaFL45JIix-37" value="Stratified dataset" style="rounded=0;whiteSpace=wrap;html=1;fontSize=10;fillColor=#F2CC8F;strokeColor=#E07A5F;fontColor=#393C56;" parent="WIyWlLk6GJQsqaUBKTNV-1" vertex="1">
          <mxGeometry x="110" y="330" width="120" height="40" as="geometry" />
        </mxCell>
        <mxCell id="Ju-EhPrNHdVaFL45JIix-50" value="" style="edgeStyle=orthogonalEdgeStyle;rounded=0;orthogonalLoop=1;jettySize=auto;html=1;fontSize=10;labelBackgroundColor=#F4F1DE;strokeColor=#E07A5F;fontColor=#393C56;" parent="WIyWlLk6GJQsqaUBKTNV-1" source="Ju-EhPrNHdVaFL45JIix-40" target="Ju-EhPrNHdVaFL45JIix-47" edge="1">
          <mxGeometry relative="1" as="geometry" />
        </mxCell>
        <mxCell id="Ju-EhPrNHdVaFL45JIix-59" value="" style="edgeStyle=orthogonalEdgeStyle;rounded=0;orthogonalLoop=1;jettySize=auto;html=1;fontSize=10;labelBackgroundColor=#F4F1DE;strokeColor=#E07A5F;fontColor=#393C56;" parent="WIyWlLk6GJQsqaUBKTNV-1" source="Ju-EhPrNHdVaFL45JIix-40" target="Ju-EhPrNHdVaFL45JIix-58" edge="1">
          <mxGeometry relative="1" as="geometry" />
        </mxCell>
        <mxCell id="Ju-EhPrNHdVaFL45JIix-40" value="Re-sampling" style="swimlane;fontStyle=1;childLayout=stackLayout;horizontal=1;startSize=20;horizontalStack=0;resizeParent=1;resizeParentMax=0;resizeLast=0;collapsible=1;marginBottom=0;fontSize=10;fillColor=#F2CC8F;strokeColor=#E07A5F;fontColor=#393C56;rounded=0;" parent="WIyWlLk6GJQsqaUBKTNV-1" vertex="1">
          <mxGeometry x="110" y="400" width="120" height="60" as="geometry" />
        </mxCell>
        <mxCell id="Ju-EhPrNHdVaFL45JIix-41" value="MC-Bootstrap" style="text;strokeColor=none;fillColor=none;align=left;verticalAlign=middle;spacingLeft=4;spacingRight=4;overflow=hidden;points=[[0,0.5],[1,0.5]];portConstraint=eastwest;rotatable=0;fontSize=10;fontColor=#393C56;rounded=0;" parent="Ju-EhPrNHdVaFL45JIix-40" vertex="1">
          <mxGeometry y="20" width="120" height="20" as="geometry" />
        </mxCell>
        <mxCell id="Ju-EhPrNHdVaFL45JIix-42" value="QMC-Latin Hypercube" style="text;strokeColor=none;fillColor=none;align=left;verticalAlign=middle;spacingLeft=4;spacingRight=4;overflow=hidden;points=[[0,0.5],[1,0.5]];portConstraint=eastwest;rotatable=0;fontSize=10;fontColor=#393C56;rounded=0;" parent="Ju-EhPrNHdVaFL45JIix-40" vertex="1">
          <mxGeometry y="40" width="120" height="20" as="geometry" />
        </mxCell>
        <mxCell id="Ju-EhPrNHdVaFL45JIix-47" value="Metrics" style="swimlane;fontStyle=1;childLayout=stackLayout;horizontal=1;startSize=20;horizontalStack=0;resizeParent=1;resizeParentMax=0;resizeLast=0;collapsible=1;marginBottom=0;fontSize=10;fillColor=#F2CC8F;strokeColor=#E07A5F;fontColor=#393C56;rounded=0;" parent="WIyWlLk6GJQsqaUBKTNV-1" vertex="1">
          <mxGeometry x="270" y="390" width="100" height="80" as="geometry" />
        </mxCell>
        <mxCell id="Ju-EhPrNHdVaFL45JIix-48" value="Histogram" style="text;strokeColor=none;fillColor=none;align=left;verticalAlign=middle;spacingLeft=4;spacingRight=4;overflow=hidden;points=[[0,0.5],[1,0.5]];portConstraint=eastwest;rotatable=0;fontSize=10;fontColor=#393C56;rounded=0;" parent="Ju-EhPrNHdVaFL45JIix-47" vertex="1">
          <mxGeometry y="20" width="100" height="20" as="geometry" />
        </mxCell>
        <mxCell id="Ju-EhPrNHdVaFL45JIix-51" value="Kernel Density" style="text;strokeColor=none;fillColor=none;align=left;verticalAlign=middle;spacingLeft=4;spacingRight=4;overflow=hidden;points=[[0,0.5],[1,0.5]];portConstraint=eastwest;rotatable=0;fontSize=10;fontColor=#393C56;rounded=0;" parent="Ju-EhPrNHdVaFL45JIix-47" vertex="1">
          <mxGeometry y="40" width="100" height="20" as="geometry" />
        </mxCell>
        <mxCell id="Ju-EhPrNHdVaFL45JIix-49" value="Cross-entropy KLD" style="text;strokeColor=none;fillColor=none;align=left;verticalAlign=middle;spacingLeft=4;spacingRight=4;overflow=hidden;points=[[0,0.5],[1,0.5]];portConstraint=eastwest;rotatable=0;fontSize=10;fontColor=#393C56;rounded=0;" parent="Ju-EhPrNHdVaFL45JIix-47" vertex="1">
          <mxGeometry y="60" width="100" height="20" as="geometry" />
        </mxCell>
        <mxCell id="Ju-EhPrNHdVaFL45JIix-68" value="" style="edgeStyle=orthogonalEdgeStyle;rounded=0;orthogonalLoop=1;jettySize=auto;html=1;fontSize=10;entryX=0.5;entryY=0;entryDx=0;entryDy=0;labelBackgroundColor=#F4F1DE;strokeColor=#E07A5F;fontColor=#393C56;" parent="WIyWlLk6GJQsqaUBKTNV-1" source="Ju-EhPrNHdVaFL45JIix-58" target="Ju-EhPrNHdVaFL45JIix-64" edge="1">
          <mxGeometry relative="1" as="geometry" />
        </mxCell>
        <mxCell id="Ju-EhPrNHdVaFL45JIix-80" value="" style="edgeStyle=orthogonalEdgeStyle;rounded=0;orthogonalLoop=1;jettySize=auto;html=1;fontSize=10;labelBackgroundColor=#F4F1DE;strokeColor=#E07A5F;fontColor=#393C56;" parent="WIyWlLk6GJQsqaUBKTNV-1" source="Ju-EhPrNHdVaFL45JIix-58" target="Ju-EhPrNHdVaFL45JIix-79" edge="1">
          <mxGeometry relative="1" as="geometry" />
        </mxCell>
        <mxCell id="Ju-EhPrNHdVaFL45JIix-58" value="&lt;span style=&quot;font-size: 10px;&quot;&gt;&lt;font style=&quot;font-size: 10px;&quot;&gt;Vectors re-sampled Y&lt;/font&gt;&lt;/span&gt;" style="rounded=0;whiteSpace=wrap;html=1;fontStyle=0;startSize=20;fillColor=#F2CC8F;strokeColor=#E07A5F;fontColor=#393C56;fontSize=10;" parent="WIyWlLk6GJQsqaUBKTNV-1" vertex="1">
          <mxGeometry x="110" y="490" width="120" height="40" as="geometry" />
        </mxCell>
        <mxCell id="Ju-EhPrNHdVaFL45JIix-70" value="" style="edgeStyle=orthogonalEdgeStyle;rounded=0;orthogonalLoop=1;jettySize=auto;html=1;fontSize=10;labelBackgroundColor=#F4F1DE;strokeColor=#E07A5F;fontColor=#393C56;" parent="WIyWlLk6GJQsqaUBKTNV-1" source="Ju-EhPrNHdVaFL45JIix-64" target="Ju-EhPrNHdVaFL45JIix-69" edge="1">
          <mxGeometry relative="1" as="geometry" />
        </mxCell>
        <mxCell id="Ju-EhPrNHdVaFL45JIix-75" value="" style="edgeStyle=orthogonalEdgeStyle;rounded=0;orthogonalLoop=1;jettySize=auto;html=1;fontSize=10;labelBackgroundColor=#F4F1DE;strokeColor=#E07A5F;fontColor=#393C56;" parent="WIyWlLk6GJQsqaUBKTNV-1" source="Ju-EhPrNHdVaFL45JIix-64" target="Ju-EhPrNHdVaFL45JIix-71" edge="1">
          <mxGeometry relative="1" as="geometry" />
        </mxCell>
        <mxCell id="Ju-EhPrNHdVaFL45JIix-64" value="Stochastic programming" style="swimlane;fontStyle=1;childLayout=stackLayout;horizontal=1;startSize=20;horizontalStack=0;resizeParent=1;resizeParentMax=0;resizeLast=0;collapsible=1;marginBottom=0;fontSize=10;fillColor=#F2CC8F;strokeColor=#E07A5F;fontColor=#393C56;rounded=0;" parent="WIyWlLk6GJQsqaUBKTNV-1" vertex="1">
          <mxGeometry x="95" y="560" width="150" height="80" as="geometry">
            <mxRectangle x="100" y="560" width="160" height="30" as="alternateBounds" />
          </mxGeometry>
        </mxCell>
        <mxCell id="Ju-EhPrNHdVaFL45JIix-65" value="Sample average approximation" style="text;strokeColor=none;fillColor=none;align=left;verticalAlign=middle;spacingLeft=4;spacingRight=4;overflow=hidden;points=[[0,0.5],[1,0.5]];portConstraint=eastwest;rotatable=0;fontSize=10;fontColor=#393C56;rounded=0;" parent="Ju-EhPrNHdVaFL45JIix-64" vertex="1">
          <mxGeometry y="20" width="150" height="20" as="geometry" />
        </mxCell>
        <mxCell id="Ju-EhPrNHdVaFL45JIix-66" value="VaR - CVaR (95%)" style="text;strokeColor=none;fillColor=none;align=left;verticalAlign=middle;spacingLeft=4;spacingRight=4;overflow=hidden;points=[[0,0.5],[1,0.5]];portConstraint=eastwest;rotatable=0;fontSize=10;fontColor=#393C56;rounded=0;" parent="Ju-EhPrNHdVaFL45JIix-64" vertex="1">
          <mxGeometry y="40" width="150" height="20" as="geometry" />
        </mxCell>
        <mxCell id="Ju-EhPrNHdVaFL45JIix-67" value="Mixed-bilinear programming" style="text;strokeColor=none;fillColor=none;align=left;verticalAlign=middle;spacingLeft=4;spacingRight=4;overflow=hidden;points=[[0,0.5],[1,0.5]];portConstraint=eastwest;rotatable=0;fontSize=10;fontColor=#393C56;rounded=0;" parent="Ju-EhPrNHdVaFL45JIix-64" vertex="1">
          <mxGeometry y="60" width="150" height="20" as="geometry" />
        </mxCell>
        <mxCell id="Ju-EhPrNHdVaFL45JIix-77" value="" style="edgeStyle=orthogonalEdgeStyle;rounded=0;orthogonalLoop=1;jettySize=auto;html=1;fontSize=10;labelBackgroundColor=#F4F1DE;strokeColor=#E07A5F;fontColor=#393C56;" parent="WIyWlLk6GJQsqaUBKTNV-1" source="Ju-EhPrNHdVaFL45JIix-69" target="Ju-EhPrNHdVaFL45JIix-76" edge="1">
          <mxGeometry relative="1" as="geometry" />
        </mxCell>
        <mxCell id="Ju-EhPrNHdVaFL45JIix-69" value="&lt;span style=&quot;font-weight: normal; font-size: 10px;&quot;&gt;Vector of contracts X&lt;sup style=&quot;font-size: 10px;&quot;&gt;*&lt;/sup&gt;&lt;/span&gt;" style="rounded=0;whiteSpace=wrap;html=1;fontSize=10;fontStyle=1;startSize=20;fillColor=#F2CC8F;strokeColor=#E07A5F;fontColor=#393C56;" parent="WIyWlLk6GJQsqaUBKTNV-1" vertex="1">
          <mxGeometry x="110" y="670" width="120" height="40" as="geometry" />
        </mxCell>
        <mxCell id="Ju-EhPrNHdVaFL45JIix-71" value="Methods" style="swimlane;fontStyle=1;childLayout=stackLayout;horizontal=1;startSize=20;horizontalStack=0;resizeParent=1;resizeParentMax=0;resizeLast=0;collapsible=1;marginBottom=0;fontSize=10;fillColor=#F2CC8F;strokeColor=#E07A5F;fontColor=#393C56;rounded=0;" parent="WIyWlLk6GJQsqaUBKTNV-1" vertex="1">
          <mxGeometry x="270" y="560" width="105" height="80" as="geometry">
            <mxRectangle x="100" y="560" width="160" height="30" as="alternateBounds" />
          </mxGeometry>
        </mxCell>
        <mxCell id="Ju-EhPrNHdVaFL45JIix-72" value="Gurobi solver" style="text;strokeColor=none;fillColor=none;align=left;verticalAlign=middle;spacingLeft=4;spacingRight=4;overflow=hidden;points=[[0,0.5],[1,0.5]];portConstraint=eastwest;rotatable=0;fontSize=10;fontColor=#393C56;rounded=0;" parent="Ju-EhPrNHdVaFL45JIix-71" vertex="1">
          <mxGeometry y="20" width="105" height="20" as="geometry" />
        </mxCell>
        <mxCell id="Ju-EhPrNHdVaFL45JIix-73" value="Multiple Replications" style="text;strokeColor=none;fillColor=none;align=left;verticalAlign=middle;spacingLeft=4;spacingRight=4;overflow=hidden;points=[[0,0.5],[1,0.5]];portConstraint=eastwest;rotatable=0;fontSize=10;fontColor=#393C56;rounded=0;" parent="Ju-EhPrNHdVaFL45JIix-71" vertex="1">
          <mxGeometry y="40" width="105" height="20" as="geometry" />
        </mxCell>
        <mxCell id="Ju-EhPrNHdVaFL45JIix-74" value="Convergence test" style="text;strokeColor=none;fillColor=none;align=left;verticalAlign=middle;spacingLeft=4;spacingRight=4;overflow=hidden;points=[[0,0.5],[1,0.5]];portConstraint=eastwest;rotatable=0;fontSize=10;fontColor=#393C56;rounded=0;" parent="Ju-EhPrNHdVaFL45JIix-71" vertex="1">
          <mxGeometry y="60" width="105" height="20" as="geometry" />
        </mxCell>
        <mxCell id="Ju-EhPrNHdVaFL45JIix-76" value="&lt;span style=&quot;font-weight: normal; font-size: 10px;&quot;&gt;Optimal contract&lt;br style=&quot;font-size: 10px;&quot;&gt;Mean(X&lt;sup style=&quot;font-size: 10px;&quot;&gt;*&lt;/sup&gt;)&lt;/span&gt;" style="rounded=0;whiteSpace=wrap;html=1;fontSize=10;fontStyle=1;startSize=20;fillColor=#F2CC8F;strokeColor=#E07A5F;fontColor=#393C56;" parent="WIyWlLk6GJQsqaUBKTNV-1" vertex="1">
          <mxGeometry x="110" y="740" width="120" height="40" as="geometry" />
        </mxCell>
        <mxCell id="Ju-EhPrNHdVaFL45JIix-78" style="edgeStyle=orthogonalEdgeStyle;rounded=0;orthogonalLoop=1;jettySize=auto;html=1;exitX=0.5;exitY=1;exitDx=0;exitDy=0;fontSize=10;labelBackgroundColor=#F4F1DE;strokeColor=#E07A5F;fontColor=#393C56;" parent="WIyWlLk6GJQsqaUBKTNV-1" source="Ju-EhPrNHdVaFL45JIix-76" target="Ju-EhPrNHdVaFL45JIix-76" edge="1">
          <mxGeometry relative="1" as="geometry" />
        </mxCell>
        <mxCell id="Ju-EhPrNHdVaFL45JIix-79" value="&lt;b style=&quot;font-size: 10px;&quot;&gt;&lt;font style=&quot;font-size: 10px; line-height: 1.2;&quot;&gt;Repeat for each cluster&lt;/font&gt;&lt;/b&gt;" style="rhombus;whiteSpace=wrap;html=1;rounded=0;fontStyle=0;startSize=20;fillColor=#F2CC8F;strokeColor=#E07A5F;fontColor=#393C56;fontSize=10;" parent="WIyWlLk6GJQsqaUBKTNV-1" vertex="1">
          <mxGeometry x="390" y="465" width="110" height="90" as="geometry" />
        </mxCell>
      </root>
    </mxGraphModel>
  </diagram>
</mxfile>
